<svg width="200" height="200" viewBox="0 0 200 200" fill="none" xmlns="http://www.w3.org/2000/svg">
<rect width="200" height="200" rx="50" fill="#6233CE"/>
<path d="M25.8068 82.6364V119H21.4034V82.6364H25.8068ZM34.6358 82.6364H39.8915L52.2495 112.821H52.6756L65.0336 82.6364H70.2892V119H66.1699V91.3722H65.8148L54.4512 119H50.4739L39.1103 91.3722H38.7551V119H34.6358V82.6364ZM80.6097 119H75.9933L89.3455 82.6364H93.891L107.243 119H102.627L91.7603 88.3892H91.4762L80.6097 119ZM82.3143 104.795H100.922V108.702H82.3143V104.795ZM136.056 94C135.666 92.8045 135.151 91.7332 134.512 90.7862C133.884 89.8274 133.133 89.0107 132.257 88.3359C131.392 87.6612 130.41 87.1463 129.309 86.7912C128.208 86.4361 127.001 86.2585 125.687 86.2585C123.533 86.2585 121.574 86.8149 119.81 87.9276C118.046 89.0402 116.643 90.6797 115.602 92.8459C114.56 95.0121 114.039 97.6695 114.039 100.818C114.039 103.967 114.566 106.624 115.619 108.79C116.673 110.957 118.099 112.596 119.899 113.709C121.698 114.821 123.722 115.378 125.971 115.378C128.054 115.378 129.889 114.934 131.475 114.046C133.073 113.147 134.316 111.88 135.204 110.246C136.104 108.601 136.553 106.666 136.553 104.44L137.903 104.724H126.965V100.818H140.815V104.724C140.815 107.719 140.176 110.323 138.897 112.537C137.631 114.75 135.879 116.467 133.642 117.686C131.416 118.893 128.859 119.497 125.971 119.497C122.751 119.497 119.922 118.74 117.484 117.224C115.057 115.709 113.163 113.555 111.802 110.761C110.453 107.968 109.778 104.653 109.778 100.818C109.778 97.9418 110.163 95.3553 110.932 93.0589C111.713 90.7507 112.814 88.7857 114.235 87.1641C115.655 85.5424 117.336 84.2995 119.277 83.4354C121.218 82.5713 123.355 82.1392 125.687 82.1392C127.605 82.1392 129.392 82.4292 131.049 83.0092C132.718 83.5774 134.204 84.3883 135.506 85.4418C136.82 86.4834 137.915 87.7322 138.791 89.1882C139.667 90.6323 140.27 92.2363 140.602 94H136.056ZM148.357 119V82.6364H170.303V86.5426H152.76V98.8295H169.166V102.736H152.76V115.094H170.587V119H148.357Z" fill="white"/>
</svg>
