<svg width="200" height="200" viewBox="0 0 200 200" fill="none" xmlns="http://www.w3.org/2000/svg">
<rect width="200" height="200" rx="50" fill="#CC3333"/>
<path d="M27.0455 129V70.8182H46.7045C51.2689 70.8182 55 71.642 57.8977 73.2898C60.8144 74.9186 62.9735 77.125 64.375 79.9091C65.7765 82.6932 66.4773 85.7992 66.4773 89.2273C66.4773 92.6553 65.7765 95.7708 64.375 98.5739C62.9924 101.377 60.8523 103.612 57.9545 105.278C55.0568 106.926 51.3447 107.75 46.8182 107.75H32.7273V101.5H46.5909C49.7159 101.5 52.2254 100.96 54.1193 99.8807C56.0133 98.8011 57.3864 97.3428 58.2386 95.5057C59.1098 93.6496 59.5455 91.5568 59.5455 89.2273C59.5455 86.8977 59.1098 84.8144 58.2386 82.9773C57.3864 81.1402 56.0038 79.7008 54.0909 78.6591C52.178 77.5985 49.6402 77.0682 46.4773 77.0682H34.0909V129H27.0455ZM95.7812 129H77.8267V70.8182H96.5767C102.221 70.8182 107.05 71.983 111.065 74.3125C115.08 76.6231 118.158 79.947 120.298 84.2841C122.438 88.6023 123.509 93.7727 123.509 99.7955C123.509 105.856 122.429 111.074 120.27 115.449C118.111 119.805 114.967 123.157 110.838 125.506C106.709 127.835 101.69 129 95.7812 129ZM84.8722 122.75H95.3267C100.137 122.75 104.124 121.822 107.287 119.966C110.45 118.11 112.808 115.468 114.361 112.04C115.914 108.612 116.69 104.53 116.69 99.7955C116.69 95.0985 115.923 91.0549 114.389 87.6648C112.855 84.2557 110.563 81.642 107.514 79.8239C104.465 77.9867 100.668 77.0682 96.1222 77.0682H84.8722V122.75ZM135.327 129V70.8182H170.213V77.0682H142.372V96.7273H167.599V102.977H142.372V129H135.327Z" fill="white"/>
</svg>
